
*******************************************************************************
                  Immortals.2011.BRRip.XviD.AC3-PRESTiGE
*******************************************************************************


General Information:

Complete name                    : Immortals.2011.BRRip.XviD.AC3-PRESTiGE
Format                           : AVI
Format/Info                      : Audio Video Interleave
File size                        : 2.10 GiB
Duration                         : 1h 50mn
Overall bit rate                 : 2 726 Kbps
Language : English
Subs : N/A
Source : Zeeflo Many THANKS
Encoder : akosipalos

iMDB: http://www.imdb.com/title/tt1253864/

Video

ID                               : 0
Format                           : MPEG-4 Visual
Format profile                   : Advanced Simple@L5
Format settings, BVOP            : 2
Format settings, QPel            : No
Format settings, GMC             : No warppoints
Format settings, Matrix          : Default (H.263)
Codec ID                         : XVID
Codec ID/Hint                    : XviD
Duration                         : 1h 50mn
Bit rate                         : 2 273 Kbps
Width                            : 720 pixels
Height                           : 384 pixels
Display aspect ratio             : 1.875
Frame rate                       : 23.976 fps
Color space                      : YUV
Chroma subsampling               : 4:2:0
Bit depth                        : 8 bits
Scan type                        : Progressive
Compression mode                 : Lossy
Bits/(Pixel*Frame)               : 0.343
Stream size                      : 1.75 GiB (83%)
Writing library                  : XviD 1.2.1 (UTC 2008-12-04)

Audio

ID                               : 1
Format                           : AC-3
Format/Info                      : Audio Coding 3
Mode extension                   : CM (complete main)
Codec ID                         : 2000
Duration                         : 1h 50mn
Bit rate mode                    : Constant
Bit rate                         : 448 Kbps
Channel(s)                       : 6 channels
Channel positions                : Front: L C R, Side: L R, LFE
Sampling rate                    : 48.0 KHz
Bit depth                        : 16 bits
Compression mode                 : Lossy
Stream size                      : 354 MiB (16%)
Alignment                        : Split accross interleaves
Interleave, duration             : 500 ms (11.99 video frames)
Interleave, preload duration     : 500 ms


Plot:

Theseus is a mortal man chosen by Zeus to lead the fight against the ruthless King Hyperion,
who is on a rampage across Greece to obtain a weapon that can destroy humanity.


Screens:
[imgw=http://i.imgur.com/JcGiv.png]
[imgw=http://i.imgur.com/uAUHP.png]
[imgw=http://i.imgur.com/5cR1J.png]
[imgw=http://i.imgur.com/9gzLI.png]
Release Notes:

WE DONT RELEASE EVERYTHiNG TO OTHERS SiTES YOU WANT MORE OF OUR STUFF COME FiND US AT .......

WE ARE LOOKING FOR SUPPLiERS BLURAY, CAM, R5, PRE RETAiL DVD GOT SOMETHiNG WE MiGHT LiKE WHEN YOU FiND US TELL US.......


GREETZ:

Twisted | Bigguy | CTFX | Whitestag13 | THoRN | SANTi | PA4U2C | Jungledave | mtyy
| marsby | cld | Stortrapp | rizal | mannilim | Rock | Ulap | centserick2 |
musikera | Tukmol | rock3r | canislupus | sickie | fun2knytz | lilyrose
EXQUiSiTE | TRiNiTY | RiZAL Team RG | LEGiTiMATE | HiVE-CM8 | BHRG | DTRG
 CrEwSaDe | Rx | LKRG | THC | aTLas
[imgw=http://i824.photobucket.com/albums/zz161/akosipalos/PRESTiGE-3.png]
PRESTiGE is the level of respect at which one is regarded by others....RIzE Above Or Sink Below...